<?xml version="1.0" standalone="no"?>
<!DOCTYPE svg PUBLIC "-//W3C//DTD SVG 20010904//EN"
 "http://www.w3.org/TR/2001/REC-SVG-20010904/DTD/svg10.dtd">
<svg version="1.0" xmlns="http://www.w3.org/2000/svg"
 width="1299.000000pt" height="1299.000000pt" viewBox="0 0 1299.000000 1299.000000"
 preserveAspectRatio="xMidYMid meet">
<metadata>
Created by potrace 1.11, written by Peter Selinger 2001-2013
</metadata>
<g transform="translate(0.000000,1299.000000) scale(0.100000,-0.100000)"
fill="#000000" stroke="none">
<path d="M5170 12558 c0 -4 -11 -5 -25 -2 -15 2 -31 1 -38 -3 -6 -3 -23 -8
-37 -10 -54 -7 -169 -41 -187 -55 -7 -6 -13 -7 -13 -3 0 4 -6 2 -13 -4 -8 -6
-22 -12 -33 -14 -10 -2 -35 -13 -54 -25 -19 -12 -40 -22 -47 -22 -7 0 -17 -8
-22 -17 -6 -10 -11 -14 -11 -10 0 12 -69 -40 -112 -85 -38 -39 -84 -124 -92
-168 -3 -14 -5 -25 -6 -25 -8 0 -5 -143 2 -152 6 -7 8 -20 4 -28 -3 -8 -1 -15
4 -15 6 0 10 -5 10 -11 0 -19 33 -83 52 -100 10 -9 18 -19 18 -23 0 -14 159
-136 177 -136 5 0 23 -13 41 -29 17 -17 32 -27 32 -23 0 4 4 2 8 -3 4 -6 33
-27 64 -48 31 -21 64 -44 72 -53 8 -8 17 -13 20 -12 2 2 16 -7 29 -19 14 -12
28 -19 31 -16 3 3 8 -2 12 -11 3 -9 10 -13 15 -10 5 3 12 -2 15 -10 3 -9 10
-13 15 -10 5 3 9 0 9 -5 0 -6 6 -11 14 -11 8 0 16 -3 18 -8 2 -4 35 -27 73
-52 39 -25 77 -51 85 -59 12 -12 18 -9 42 20 15 18 28 39 28 46 0 7 5 13 10
13 6 0 10 6 10 14 0 8 6 21 13 28 6 7 46 69 87 138 41 69 77 127 80 130 4 3 9
13 13 22 3 10 38 70 77 134 38 64 70 122 70 129 0 7 6 15 13 18 12 5 43 81 51
127 3 14 5 25 6 25 1 0 3 15 4 33 1 17 -1 32 -4 32 -4 0 -6 12 -4 26 3 30 -21
104 -50 154 -27 47 -96 120 -113 120 -7 0 -13 4 -13 8 0 13 -95 55 -124 55
-14 0 -26 3 -26 6 0 9 -16 10 -173 13 -70 2 -127 0 -127 -4z"/>
<path d="M6285 12230 c-3 -5 -3 -10 0 -10 3 0 -3 -10 -14 -22 -11 -11 -18 -25
-15 -30 3 -4 1 -8 -3 -8 -5 0 -19 -20 -33 -45 -14 -25 -28 -45 -33 -45 -4 0
-6 -4 -3 -9 3 -4 -6 -23 -19 -41 -14 -19 -25 -40 -25 -47 0 -7 -5 -13 -11 -13
-5 0 -7 -4 -4 -10 3 -5 2 -10 -3 -10 -5 0 -17 -18 -28 -40 -10 -22 -22 -40
-26 -40 -5 0 -8 -5 -8 -10 0 -10 -101 -185 -118 -206 -5 -6 -13 -20 -16 -32
-4 -12 -12 -22 -17 -22 -6 0 -8 -4 -5 -9 3 -4 -3 -19 -14 -31 -11 -13 -20 -27
-20 -32 0 -5 -9 -18 -20 -30 -11 -12 -20 -28 -20 -35 0 -7 -5 -13 -11 -13 -5
0 -8 -4 -5 -8 3 -5 -4 -18 -14 -30 -11 -12 -20 -26 -20 -32 0 -6 -11 -26 -24
-43 -13 -18 -27 -42 -31 -55 -4 -13 -9 -21 -12 -18 -3 3 -15 -14 -26 -37 -12
-23 -24 -44 -27 -47 -3 -3 -18 -26 -33 -52 l-27 -47 32 -17 c18 -9 38 -23 46
-30 7 -8 24 -17 38 -20 13 -3 24 -10 24 -14 0 -4 14 -13 30 -20 17 -7 30 -16
30 -20 0 -4 11 -11 25 -14 14 -4 25 -11 25 -17 0 -6 5 -7 10 -4 6 3 10 1 10
-4 0 -6 4 -11 8 -11 9 0 165 -92 186 -109 6 -5 18 -11 26 -13 8 -2 17 -6 20
-9 9 -11 205 -121 218 -123 8 -1 17 -7 20 -12 4 -5 21 -16 37 -24 17 -8 46
-25 66 -37 20 -12 40 -19 43 -16 3 4 6 2 6 -3 0 -6 16 -16 35 -24 19 -8 35
-18 35 -24 0 -5 3 -6 6 -3 4 4 20 -3 35 -14 16 -11 29 -17 29 -13 0 4 8 0 18
-9 10 -10 22 -14 25 -10 4 3 7 2 7 -4 0 -10 36 -26 53 -24 4 1 7 -4 7 -10 0
-5 4 -8 9 -5 5 3 14 -1 21 -9 7 -8 16 -12 21 -9 5 3 9 0 9 -5 0 -6 3 -10 8 -9
4 1 28 -9 55 -21 38 -19 50 -21 62 -11 8 7 12 16 9 21 -3 5 -1 9 4 9 5 0 15
14 22 30 7 17 16 30 21 30 5 0 9 5 9 10 0 6 23 44 50 86 28 41 50 78 50 80 0
3 5 10 10 17 29 33 180 252 180 261 0 5 3 7 6 3 3 -3 21 15 40 41 19 26 41 57
50 69 15 21 14 27 -32 118 -27 52 -52 95 -56 95 -4 0 -8 7 -8 16 0 8 -6 22
-12 29 -26 29 -34 40 -34 47 1 4 -6 15 -14 25 -8 10 -21 31 -29 46 -8 15 -18
27 -23 27 -4 0 -8 6 -8 13 0 8 -9 22 -20 32 -11 10 -20 22 -20 28 0 5 -10 18
-22 28 -11 11 -17 19 -13 19 4 0 -6 14 -23 30 -18 17 -30 30 -27 30 7 0 -25
39 -52 63 -13 11 -23 27 -23 34 0 8 -4 11 -10 8 -5 -3 -10 -1 -10 4 0 18 -253
264 -336 326 -44 33 -49 37 -84 66 -14 11 -37 28 -52 37 -16 9 -28 20 -28 24
0 4 -5 8 -12 8 -6 0 -25 11 -42 24 -30 22 -90 56 -100 56 -3 0 -8 -4 -11 -10z"/>
<path d="M4002 11710 c-9 -16 -20 -30 -24 -30 -5 0 -8 -5 -8 -11 0 -6 -9 -24
-21 -40 -11 -16 -17 -29 -12 -29 4 0 3 -4 -3 -8 -6 -4 -21 -27 -35 -52 -13
-25 -26 -47 -29 -50 -7 -7 -90 -175 -90 -182 0 -3 -8 -23 -17 -44 -9 -22 -18
-46 -19 -54 -2 -8 -8 -16 -14 -18 -5 -2 -7 -8 -4 -13 3 -6 1 -15 -4 -22 -15
-19 -52 -139 -46 -148 3 -5 1 -9 -4 -9 -9 0 -29 -61 -39 -115 -2 -11 -7 -31
-13 -45 -5 -14 -11 -38 -14 -55 -2 -16 -7 -41 -10 -55 -3 -14 -8 -36 -10 -50
-3 -14 -7 -36 -10 -50 -15 -77 -37 -290 -40 -397 -2 -56 0 -64 19 -69 11 -4
22 -9 25 -13 3 -3 37 -21 75 -40 39 -19 72 -37 75 -40 3 -3 22 -14 43 -23 20
-10 37 -22 37 -28 0 -5 7 -7 15 -4 8 4 15 1 15 -5 0 -6 7 -11 15 -11 8 0 15
-5 15 -12 0 -6 3 -8 7 -5 3 4 15 0 25 -10 10 -9 18 -12 18 -7 0 5 4 4 8 -1 10
-14 90 -65 102 -65 5 0 10 -4 10 -10 0 -5 5 -10 11 -10 6 0 17 -7 26 -15 8 -8
19 -13 24 -10 5 4 9 -1 9 -9 0 -9 9 -16 20 -16 11 0 20 -3 20 -7 0 -8 50 -40
61 -39 3 1 13 -7 23 -16 24 -24 27 -23 60 22 17 22 33 40 38 40 4 0 8 6 8 14
0 8 7 17 16 20 9 4 14 9 11 13 -4 3 5 15 19 25 14 11 23 22 21 25 -3 2 5 15
17 28 30 33 43 49 72 92 14 21 29 40 33 43 4 3 20 23 37 45 37 51 40 54 69 90
14 17 25 33 25 36 0 3 10 17 21 30 12 13 32 40 45 61 13 20 28 39 34 43 6 3 8
11 5 16 -4 5 -2 9 2 9 11 0 73 86 73 100 0 6 4 10 9 10 9 0 47 57 48 74 1 5 8
13 17 18 9 5 16 15 16 23 0 7 3 15 8 17 4 2 24 29 45 60 21 31 42 60 47 63 6
3 10 15 10 26 0 11 4 18 9 15 5 -3 13 6 19 22 5 15 21 40 35 56 14 17 24 33
21 38 -3 4 0 8 5 8 6 0 11 6 11 14 0 16 -158 126 -181 126 -12 0 -12 2 1 10
13 9 13 10 0 10 -9 0 -60 29 -114 65 -54 36 -102 65 -107 65 -6 0 -7 5 -4 10
3 6 1 10 -5 10 -12 0 -73 41 -78 53 -2 4 -10 7 -18 7 -8 0 -14 5 -14 10 0 6
-7 10 -15 10 -8 0 -15 5 -15 10 0 6 -4 10 -10 10 -10 0 -87 54 -122 85 -10 8
-20 15 -23 15 -6 0 -95 61 -117 81 -10 9 -30 22 -45 30 -15 8 -35 21 -44 29
-38 33 -49 40 -49 33 0 -4 -4 -3 -8 3 -10 15 -113 89 -135 97 -13 5 -22 -1
-35 -23z"/>
<path d="M7904 11094 c-99 -108 -131 -144 -169 -190 -16 -20 -42 -49 -57 -65
-15 -16 -25 -29 -23 -29 5 0 -18 -30 -42 -55 -7 -8 -13 -19 -13 -25 0 -6 -4
-8 -10 -5 -5 3 -10 0 -10 -7 0 -7 -14 -29 -31 -48 -16 -19 -37 -47 -45 -62 -8
-16 -19 -28 -24 -28 -6 0 -10 -5 -10 -12 0 -6 -12 -27 -27 -47 -63 -82 -196
-291 -185 -291 4 0 -1 -5 -11 -11 -17 -10 -17 -12 4 -30 12 -10 26 -19 31 -19
5 0 30 -10 56 -21 104 -47 149 -66 182 -78 49 -18 82 -32 104 -43 10 -5 26
-11 35 -13 9 -2 54 -18 101 -34 47 -17 85 -31 85 -30 0 0 7 -2 15 -5 89 -30
214 -64 221 -60 5 3 9 0 9 -5 0 -6 3 -10 8 -9 4 0 14 -1 22 -4 22 -8 274 -67
315 -73 6 -1 12 -3 15 -4 7 -3 38 -9 80 -16 19 -2 46 -7 60 -9 54 -10 157 -26
199 -31 23 -3 55 -7 70 -9 14 -3 53 -7 85 -11 32 -3 63 -8 68 -12 10 -6 5 24
-12 62 -10 23 -17 47 -18 58 -1 4 -8 20 -15 35 -8 15 -31 59 -50 97 -19 39
-47 90 -61 115 -14 25 -31 56 -38 70 -7 14 -19 32 -26 40 -7 8 -12 19 -11 24
0 5 -3 12 -8 15 -12 8 -73 100 -73 109 0 4 -9 14 -20 22 -11 8 -20 20 -20 28
0 7 -11 24 -25 38 -14 14 -25 28 -25 32 0 4 -11 20 -25 35 -14 15 -23 27 -20
27 3 0 -2 8 -11 18 -8 9 -34 42 -57 72 -23 30 -47 59 -54 63 -7 4 -13 14 -13
21 0 8 -7 17 -16 20 -8 3 -12 10 -9 16 3 5 -1 10 -9 10 -9 0 -16 5 -16 10 0 6
-10 21 -22 34 -13 12 -34 36 -48 53 -50 61 -167 190 -246 270 l-81 83 -79 -86z"/>
<path d="M5423 10783 c-7 -3 -13 -9 -13 -14 0 -6 -5 -15 -10 -22 -6 -7 -56
-82 -111 -167 -56 -85 -108 -160 -116 -167 -8 -6 -13 -13 -12 -15 4 -5 -59
-100 -91 -137 -8 -9 -21 -29 -29 -44 -8 -15 -18 -27 -23 -27 -4 0 -8 -6 -8
-14 0 -8 -4 -16 -9 -18 -4 -1 -29 -33 -54 -70 -25 -37 -57 -80 -71 -95 -15
-15 -26 -31 -26 -35 0 -3 -6 -13 -13 -20 -18 -18 -99 -126 -113 -149 -6 -10
-14 -16 -17 -12 -4 3 -7 2 -7 -4 0 -6 -12 -26 -27 -45 -16 -19 -39 -50 -53
-68 -14 -18 -29 -38 -35 -44 -51 -58 -50 -55 -29 -74 10 -9 48 -37 84 -62 36
-24 67 -48 68 -52 2 -4 10 -8 18 -8 8 0 14 -4 14 -10 0 -5 7 -10 15 -10 8 0
15 -4 15 -10 0 -5 6 -10 13 -10 8 0 22 -9 32 -20 10 -11 22 -20 27 -20 5 0 21
-11 35 -24 15 -14 30 -23 35 -20 4 3 8 1 8 -3 0 -5 15 -17 33 -28 17 -10 34
-21 37 -25 3 -3 26 -19 52 -35 27 -17 48 -34 48 -38 0 -5 5 -5 10 -2 6 3 10 2
10 -4 0 -5 8 -12 18 -15 10 -4 27 -14 38 -24 10 -10 45 -33 77 -51 31 -18 57
-37 57 -42 0 -5 5 -9 10 -9 13 0 154 -91 158 -102 2 -5 7 -6 12 -3 4 3 13 -2
20 -10 7 -8 19 -15 27 -15 7 0 16 -7 19 -15 4 -8 15 -15 25 -15 10 0 19 -4 19
-10 0 -5 4 -10 9 -10 5 0 46 -22 90 -50 44 -27 85 -50 91 -50 5 0 10 -5 10
-11 0 -5 4 -8 9 -5 5 4 11 2 13 -3 1 -5 21 -18 42 -30 38 -19 41 -20 57 -3 9
9 15 19 13 21 -1 2 8 15 22 29 13 15 24 32 24 39 0 6 4 13 9 15 5 2 35 44 67
93 32 50 64 96 71 103 7 7 13 20 13 28 0 8 5 14 10 14 6 0 10 6 10 14 0 8 10
22 22 30 12 9 19 16 14 16 -5 0 4 16 18 35 15 19 24 35 20 35 -4 0 3 9 16 20
13 11 20 20 16 20 -4 0 1 12 12 28 10 15 22 35 25 45 4 9 11 17 17 17 6 0 9 4
6 9 -3 5 1 14 9 21 8 7 15 19 15 26 0 8 5 14 10 14 6 0 10 7 10 15 0 8 4 15 9
15 5 0 11 8 14 18 6 19 38 74 48 82 4 3 17 25 30 49 13 24 29 51 34 60 6 9 21
34 33 56 12 22 31 54 42 70 11 17 23 38 26 48 4 9 11 17 17 17 6 0 7 3 4 6 -3
4 3 18 13 32 11 13 20 31 20 38 0 8 4 14 8 14 5 0 22 27 37 59 16 33 33 57 37
55 4 -3 8 1 8 10 0 8 3 22 6 31 5 11 0 18 -15 22 -11 3 -21 10 -21 16 0 6 -3
8 -6 4 -7 -7 -305 142 -316 158 -4 5 -8 6 -8 1 0 -5 -6 -4 -12 2 -11 9 -96 55
-180 99 -15 8 -30 19 -33 24 -4 5 -11 7 -16 4 -5 -4 -9 -3 -9 2 0 4 -15 15
-32 22 -18 8 -39 21 -46 28 -7 7 -20 13 -28 13 -8 0 -14 5 -14 12 0 6 -3 9 -6
5 -4 -3 -25 6 -48 21 -22 16 -62 39 -88 52 -27 14 -48 28 -48 31 0 4 -8 9 -17
12 -10 4 -36 18 -58 32 -22 14 -48 28 -57 31 -10 4 -18 11 -18 17 0 6 -3 8 -6
4 -3 -3 -15 3 -27 14 -11 10 -27 19 -34 19 -7 0 -13 4 -13 9 0 5 -8 11 -17 15
-21 7 -66 33 -108 62 -17 12 -36 19 -42 17z"/>
<path d="M2917 9993 c-31 -86 -72 -213 -103 -323 -13 -47 -29 -101 -35 -120
-5 -19 -12 -44 -14 -55 -2 -11 -4 -20 -5 -20 -1 0 -4 -13 -6 -30 -3 -16 -9
-31 -14 -33 -4 -2 -6 -12 -3 -22 3 -13 0 -20 -8 -20 -11 0 -11 -2 1 -10 12 -8
12 -10 1 -10 -8 0 -12 -2 -9 -5 3 -3 -1 -31 -9 -63 -7 -31 -15 -64 -17 -72 -4
-17 -18 -98 -21 -120 -1 -8 -5 -26 -8 -40 -6 -23 -9 -41 -22 -137 -3 -21 -7
-51 -10 -68 -16 -101 -23 -353 -15 -517 1 -26 30 -43 30 -18 0 6 4 10 9 10 5
0 38 18 72 40 35 22 72 43 82 46 9 4 17 11 17 17 0 6 3 8 6 4 4 -3 12 -1 20 6
33 29 44 37 54 37 5 0 10 5 10 10 0 6 7 10 15 10 8 0 15 3 15 8 0 4 16 16 35
26 19 11 35 23 35 28 0 5 5 6 10 3 6 -3 10 -2 10 2 0 5 20 22 45 37 25 16 45
32 45 35 0 3 20 19 45 34 25 16 45 34 45 40 0 5 3 7 7 4 3 -4 13 2 20 13 8 11
19 18 24 15 5 -4 9 -2 9 3 0 5 16 20 35 33 19 13 35 30 35 37 0 6 6 12 13 12
11 0 40 24 135 111 24 21 45 39 48 39 2 0 13 9 24 20 11 11 17 20 14 20 -4 0
6 10 22 23 52 40 243 238 388 402 33 37 47 75 28 75 -5 0 -37 19 -73 43 -35
23 -76 48 -91 56 -16 8 -28 18 -28 23 0 5 -4 6 -10 3 -5 -3 -10 -1 -10 5 0 6
-4 8 -10 5 -5 -3 -10 -2 -10 3 0 5 -13 15 -30 22 -16 7 -30 16 -30 20 0 4 -11
11 -24 14 -14 3 -31 12 -38 19 -7 7 -35 23 -63 37 -27 14 -57 31 -67 38 -9 8
-23 14 -31 16 -8 1 -21 7 -28 13 -22 17 -219 113 -219 106 0 -3 -8 0 -17 8
-10 8 -56 30 -103 49 -47 19 -86 38 -88 42 -2 4 -14 8 -27 8 -13 0 -27 5 -30
10 -3 6 -17 10 -30 10 -20 0 -27 -10 -48 -67z"/>
<path d="M7048 9880 c-7 -17 -16 -30 -20 -30 -5 0 -8 -5 -8 -10 0 -6 -16 -36
-35 -66 -19 -30 -35 -56 -35 -58 0 -2 -57 -100 -127 -217 -69 -118 -131 -224
-137 -236 -6 -13 -14 -23 -18 -23 -5 0 -8 -5 -8 -11 0 -6 -14 -31 -32 -56 -17
-26 -31 -52 -31 -60 0 -7 -3 -13 -7 -13 -8 0 -60 -79 -60 -91 0 -5 -4 -9 -10
-9 -5 0 -12 -11 -16 -25 -3 -14 -9 -25 -13 -25 -3 0 -17 -20 -31 -45 -14 -25
-28 -45 -32 -45 -5 0 -8 -4 -8 -9 0 -4 -29 -52 -65 -106 -36 -53 -65 -102 -65
-108 0 -5 -3 -7 -7 -4 -6 7 -27 -23 -39 -55 -3 -10 -10 -18 -15 -18 -5 0 -9
-5 -9 -11 0 -6 -8 -18 -17 -27 -16 -16 -16 -17 0 -20 9 -2 17 -8 17 -13 0 -5
9 -9 21 -9 11 0 17 -4 14 -10 -3 -5 3 -10 14 -10 11 0 23 -5 26 -11 6 -8 35
-24 65 -34 27 -9 39 -19 34 -27 -3 -5 0 -8 7 -6 8 1 64 -22 124 -52 61 -30
112 -55 115 -55 3 -1 30 -13 60 -27 85 -40 149 -68 155 -68 2 0 29 -11 59 -25
30 -14 61 -25 68 -25 8 0 19 -5 26 -12 7 -7 12 -8 12 -2 0 5 4 3 9 -4 4 -7 18
-14 29 -15 12 -1 22 -4 22 -7 0 -4 6 -7 13 -7 19 -1 112 -37 115 -45 2 -4 9
-5 17 -2 7 3 16 1 20 -5 3 -6 16 -11 29 -11 12 0 26 -3 30 -7 4 -5 12 -9 17
-9 5 -1 11 -3 14 -4 3 -1 8 -3 13 -4 4 -2 34 -11 67 -21 33 -10 65 -20 70 -21
23 -6 203 -56 233 -65 25 -8 35 -7 47 5 8 8 15 20 15 26 0 6 5 8 10 5 6 -3 10
-1 10 5 0 6 6 18 13 25 29 33 37 45 37 54 0 5 7 12 16 15 9 4 14 9 11 12 -3 4
-1 12 6 19 7 6 23 27 37 45 14 18 31 39 38 47 7 7 11 13 8 13 -3 0 3 9 14 20
11 11 20 25 20 31 0 5 5 7 10 4 6 -3 10 0 10 8 0 8 11 26 25 41 13 14 22 26
19 26 -3 0 1 6 8 13 7 7 24 30 38 50 14 20 28 37 33 37 4 0 7 5 7 11 0 6 6 16
13 23 6 7 21 25 32 40 54 75 91 121 98 124 4 2 7 10 7 17 0 7 7 15 15 19 8 3
15 12 15 21 0 8 3 15 8 15 4 0 21 20 37 45 17 24 33 45 38 45 4 0 7 6 7 14 0
8 3 16 8 18 11 5 77 89 92 118 7 14 18 30 25 35 6 6 31 37 56 70 24 33 47 64
52 70 73 95 117 154 117 159 0 3 10 16 23 29 70 77 92 124 55 118 -5 0 -8 2
-8 6 0 5 -21 9 -48 10 -42 2 -87 9 -87 13 0 1 -11 3 -25 4 -45 5 -125 18 -130
21 -3 2 -26 6 -50 10 -47 7 -71 12 -80 15 -3 1 -9 2 -13 1 -4 -1 -16 3 -25 8
-16 8 -86 22 -124 24 -10 1 -18 6 -18 11 0 5 -3 7 -6 4 -3 -3 -29 0 -57 8 -29
8 -65 16 -81 19 -16 3 -33 8 -38 11 -5 3 -20 8 -35 10 -15 3 -31 8 -37 12 -6
3 -17 7 -26 7 -8 1 -55 15 -105 30 -49 16 -92 29 -95 30 -29 6 -208 70 -217
78 -7 5 -13 6 -13 3 0 -4 -10 -1 -22 6 -13 6 -27 13 -33 14 -9 2 -79 28 -130
49 -11 5 -22 9 -25 10 -3 1 -18 7 -33 13 -16 7 -34 12 -42 12 -7 0 -15 5 -17
11 -2 5 -10 11 -18 13 -14 2 -91 36 -132 57 -13 7 -19 2 -30 -21z"/>
<path d="M9380 9493 c0 -5 -9 -19 -20 -33 -11 -14 -45 -59 -76 -100 -32 -41
-62 -78 -68 -82 -6 -4 -8 -8 -3 -8 8 0 -93 -133 -105 -138 -5 -2 -8 -8 -8 -14
0 -5 -6 -16 -12 -23 -18 -20 -29 -34 -63 -80 -17 -22 -34 -43 -40 -47 -5 -4
-7 -8 -2 -8 4 0 -1 -9 -10 -19 -10 -11 -22 -26 -28 -33 -5 -7 -32 -41 -58 -76
-27 -34 -46 -62 -43 -62 3 0 -5 -11 -17 -24 -35 -38 -52 -60 -49 -63 1 -2 -6
-11 -15 -21 -36 -38 -51 -60 -46 -66 4 -3 2 -6 -4 -6 -6 0 -28 -25 -48 -55
-21 -30 -42 -55 -47 -55 -4 0 -8 -5 -8 -11 0 -6 -10 -23 -22 -38 -13 -15 -32
-40 -43 -55 -70 -97 -159 -212 -166 -214 -5 -2 -9 -8 -9 -13 0 -8 -79 -117
-107 -147 -7 -7 -13 -16 -13 -20 0 -4 -16 -25 -35 -47 -19 -22 -35 -46 -35
-53 0 -7 -4 -10 -10 -7 -5 3 -10 1 -10 -5 0 -6 -7 -18 -15 -27 -21 -20 -13
-26 34 -29 22 -1 44 -5 50 -9 6 -3 11 0 11 7 0 9 3 9 8 2 11 -17 474 -6 503
12 4 2 24 6 45 10 44 6 67 10 109 20 17 4 38 7 48 8 9 0 17 5 17 10 0 5 3 7 6
4 5 -5 63 10 114 29 8 4 18 7 23 8 4 2 9 4 12 5 3 1 10 4 15 5 6 1 12 4 15 5
6 3 13 5 44 16 14 4 50 20 80 36 31 15 62 28 69 28 6 0 12 4 12 9 0 5 10 13
23 16 27 9 181 105 185 117 2 4 10 8 17 8 7 0 15 3 17 8 2 4 26 25 53 47 74
59 76 60 62 74 -6 6 -7 11 -1 11 5 0 9 51 7 128 -1 70 -2 127 -3 127 -1 0 -3
18 -5 40 -2 22 -4 59 -6 83 -2 24 -7 46 -11 48 -5 3 -6 9 -4 12 2 4 0 30 -5
57 -5 28 -12 64 -15 80 -10 60 -45 188 -66 243 -12 31 -23 59 -24 62 0 3 -9
23 -19 45 -10 22 -18 43 -17 48 1 4 -2 7 -8 7 -5 0 -10 4 -10 10 0 5 -18 39
-40 75 -22 36 -40 69 -40 74 0 5 -7 12 -16 15 -9 4 -14 9 -11 12 8 8 -18 34
-32 34 -6 0 -11 -3 -11 -7z"/>
<path d="M4275 9254 c-22 -25 -53 -60 -68 -78 -41 -45 -280 -296 -295 -310
-21 -18 -172 -158 -209 -193 -18 -18 -33 -30 -33 -27 0 2 -13 -8 -28 -23 -32
-31 -124 -110 -156 -132 -11 -8 -27 -22 -36 -30 -31 -29 -60 -51 -68 -51 -4 0
-14 -9 -22 -20 -8 -11 -20 -20 -27 -20 -6 0 -18 -9 -26 -20 -8 -11 -17 -17
-20 -13 -4 3 -7 1 -7 -5 0 -7 -5 -12 -10 -12 -6 0 -21 -9 -33 -21 -12 -11 -47
-37 -77 -57 -30 -20 -57 -39 -60 -42 -3 -3 -23 -17 -45 -30 -22 -13 -42 -27
-45 -30 -3 -3 -23 -17 -45 -30 -22 -13 -48 -32 -58 -41 -18 -17 -18 -17 2 -24
12 -3 21 -11 21 -16 0 -5 9 -9 20 -9 11 0 20 -5 20 -11 0 -5 5 -7 10 -4 6 3
10 3 10 -2 0 -4 20 -16 45 -26 25 -11 45 -24 45 -30 0 -6 3 -8 6 -4 3 3 28 -8
55 -24 28 -16 54 -29 59 -29 6 0 10 -5 10 -10 0 -6 4 -9 8 -8 8 3 81 -31 92
-42 3 -3 28 -17 55 -32 173 -91 211 -111 232 -125 13 -8 23 -12 23 -8 0 3 7
-1 16 -9 8 -9 21 -16 29 -16 7 0 15 -3 17 -7 2 -5 26 -19 53 -33 147 -75 240
-126 243 -132 2 -5 12 -8 22 -8 10 0 20 -3 22 -7 2 -5 24 -19 51 -32 26 -13
47 -29 47 -34 0 -6 3 -8 6 -4 3 3 43 -15 88 -39 44 -25 93 -51 109 -57 15 -6
27 -15 27 -19 0 -4 7 -8 15 -8 9 0 33 -11 55 -25 22 -14 44 -25 49 -25 5 0 16
-6 24 -14 31 -32 70 -17 153 59 12 11 38 34 58 50 20 17 51 45 68 62 17 18 35
30 39 27 5 -3 9 2 9 10 0 9 4 16 9 16 12 0 361 348 361 360 0 6 7 10 15 10 8
0 14 3 13 8 -3 6 13 26 106 126 15 17 49 57 74 89 25 31 50 57 55 57 6 0 7 3
4 6 -4 4 3 15 15 25 11 11 17 19 13 19 -5 0 -2 6 7 13 9 6 41 46 71 87 31 41
63 83 72 93 8 9 15 21 15 25 0 5 9 17 20 27 31 28 25 39 -35 69 -30 14 -55 32
-55 38 0 6 -3 8 -6 5 -4 -4 -19 2 -33 12 -14 10 -48 31 -76 46 -27 15 -59 36
-70 46 -11 10 -34 24 -50 31 -39 17 -119 69 -123 79 -2 5 -12 9 -23 9 -10 0
-19 5 -19 10 0 6 -12 16 -27 23 -16 6 -30 14 -33 18 -11 13 -130 89 -139 89
-6 0 -11 5 -11 10 0 6 -6 10 -14 10 -8 0 -16 3 -18 8 -5 11 -66 52 -78 52 -5
0 -10 4 -10 8 0 5 -16 17 -35 28 -19 10 -35 22 -35 27 0 4 -4 6 -9 3 -4 -3
-16 3 -26 14 -10 11 -24 20 -31 20 -7 0 -17 6 -21 13 -4 7 -42 35 -83 62 -41
27 -76 53 -78 57 -2 4 -8 8 -13 8 -6 0 -15 5 -22 10 -15 13 -123 91 -157 113
-25 16 -26 15 -65 -29z"/>
<path d="M5984 8216 c-3 -9 -10 -13 -15 -10 -5 3 -9 -1 -9 -8 0 -7 -11 -25
-25 -40 -14 -15 -25 -30 -25 -33 0 -6 -4 -12 -50 -66 -16 -20 -30 -39 -30 -43
0 -3 -8 -14 -17 -25 -36 -37 -73 -83 -73 -90 0 -4 -9 -13 -20 -21 -11 -8 -20
-19 -20 -24 0 -5 -8 -16 -18 -25 -10 -9 -21 -24 -25 -34 -4 -10 -11 -15 -17
-12 -5 3 -10 0 -10 -7 0 -8 -8 -20 -17 -29 -10 -8 -31 -31 -46 -50 -77 -95
-497 -529 -511 -529 -3 0 -25 -19 -49 -42 -25 -24 -66 -62 -91 -85 -45 -41
-52 -63 -20 -63 8 0 14 -3 14 -8 0 -4 15 -13 33 -21 17 -8 34 -17 37 -20 3 -3
37 -22 75 -41 39 -19 72 -37 75 -40 9 -9 65 -34 73 -32 4 1 7 -3 7 -8 0 -6 9
-10 20 -10 11 0 20 -4 20 -8 0 -9 88 -52 104 -51 5 0 12 -4 15 -10 7 -10 398
-202 439 -215 12 -4 22 -11 22 -16 0 -5 7 -7 15 -4 8 4 15 1 15 -5 0 -6 7 -11
15 -11 8 0 31 -9 50 -20 20 -11 44 -22 55 -23 10 -2 24 -7 32 -13 23 -17 130
-61 152 -62 5 0 12 -5 16 -12 4 -6 13 -13 21 -14 8 -2 25 -8 39 -13 14 -6 45
-19 70 -28 25 -10 49 -22 55 -27 5 -4 19 -8 31 -8 13 0 26 -5 30 -12 5 -8 11
-6 19 6 13 17 126 143 180 200 43 46 119 137 123 147 2 5 10 9 18 9 9 0 12 5
9 10 -3 6 1 13 9 16 9 3 16 10 16 15 0 4 10 19 23 32 58 61 114 127 109 127
-4 1 4 10 17 20 13 11 21 20 18 20 -4 0 4 10 16 23 12 13 38 43 57 67 19 25
43 52 53 62 9 10 17 20 17 23 0 5 33 45 58 71 6 7 12 15 12 18 0 6 31 45 58
72 7 8 11 14 8 14 -3 0 2 8 12 18 9 10 28 33 42 51 14 19 33 43 43 54 10 12
27 36 38 54 11 18 26 33 31 33 6 0 9 3 5 6 -5 6 10 28 45 65 9 9 14 20 11 23
-3 3 2 8 11 12 9 3 16 10 16 16 0 5 7 16 15 24 8 9 15 19 15 24 0 8 -50 28
-88 35 -9 2 -19 4 -22 5 -3 1 -8 2 -12 1 -5 0 -8 3 -8 8 0 6 -8 9 -17 9 -10 0
-78 20 -150 45 -73 25 -133 42 -133 39 0 -4 -4 -2 -8 3 -4 6 -25 16 -47 23
-22 7 -49 17 -60 22 -11 4 -60 24 -110 43 -49 20 -103 41 -120 48 -16 7 -33
13 -37 13 -4 1 -13 7 -20 14 -6 6 -20 12 -30 12 -10 0 -30 7 -43 16 -14 9 -25
13 -25 9 0 -3 -7 1 -16 9 -8 9 -24 16 -35 16 -10 0 -19 5 -19 11 0 5 -4 8 -9
4 -5 -3 -17 2 -25 11 -9 8 -16 13 -16 10 0 -4 -17 2 -37 13 -21 10 -42 20 -48
22 -5 2 -41 20 -79 41 -38 21 -75 38 -82 38 -7 0 -18 8 -23 18 -6 9 -11 13
-11 9 0 -7 -76 29 -90 43 -4 4 -87 47 -112 58 -5 2 -11 -3 -14 -12z"/>
<path d="M9960 8030 c0 -5 -4 -10 -9 -10 -6 0 -24 -13 -42 -30 -18 -16 -35
-28 -37 -26 -2 2 -13 -6 -26 -18 -53 -51 -164 -126 -186 -126 -6 0 -10 -4 -10
-9 0 -5 -9 -13 -20 -16 -11 -3 -26 -12 -33 -18 -16 -15 -197 -106 -217 -109
-8 -2 -17 -5 -20 -8 -10 -10 -145 -62 -170 -65 -3 0 -11 -4 -17 -8 -7 -5 -13
-6 -13 -2 0 3 -9 1 -21 -5 -11 -6 -30 -13 -41 -15 -12 -3 -25 -10 -30 -17 -6
-11 -8 -11 -8 0 0 9 -5 10 -17 4 -19 -10 -150 -38 -218 -47 -22 -2 -51 -7 -65
-10 -26 -5 -164 -15 -260 -19 -30 -1 -61 -5 -67 -9 -7 -5 -13 -5 -13 0 0 4
-35 9 -78 9 -100 2 -270 12 -302 19 -73 15 -141 15 -155 1 -8 -8 -15 -17 -15
-21 0 -4 -6 -12 -12 -19 -7 -7 -22 -25 -33 -41 -11 -15 -28 -36 -37 -47 -10
-10 -18 -22 -18 -26 0 -5 -8 -17 -17 -28 -10 -10 -38 -46 -63 -79 -24 -33 -48
-64 -52 -70 -4 -5 -35 -46 -69 -90 -34 -44 -69 -86 -77 -92 -9 -7 -12 -13 -8
-13 6 0 -60 -89 -98 -130 -7 -8 -30 -37 -51 -65 -20 -27 -45 -55 -54 -62 -9
-7 -13 -13 -9 -13 4 0 -13 -21 -37 -47 -25 -27 -45 -51 -45 -54 0 -3 -10 -17
-22 -31 -13 -14 -39 -44 -58 -68 -19 -24 -47 -56 -62 -72 -15 -15 -24 -28 -20
-28 3 0 -4 -7 -16 -16 -12 -8 -22 -22 -22 -30 0 -8 -7 -14 -15 -14 -8 0 -15
-3 -15 -8 0 -4 -17 -26 -37 -48 -73 -80 -138 -156 -141 -163 -1 -3 40 -19 90
-35 51 -15 102 -32 113 -36 17 -8 150 -48 180 -55 6 -1 17 -5 25 -8 8 -4 33
-11 55 -16 22 -5 76 -19 120 -31 44 -12 89 -23 100 -25 11 -2 31 -6 45 -10 14
-3 36 -8 50 -10 14 -3 45 -9 70 -15 172 -37 240 -48 333 -53 15 -1 27 -5 27
-9 0 -4 16 -6 35 -4 19 1 35 0 35 -4 0 -3 17 -6 38 -7 115 -4 162 -9 162 -17
0 -4 6 -3 14 3 10 8 16 9 21 1 4 -7 12 -7 25 0 10 6 21 6 24 2 2 -4 72 -8 154
-7 133 0 152 2 171 19 12 11 21 25 21 33 0 7 7 16 15 19 8 4 15 12 15 20 0 8
5 14 10 14 6 0 9 3 8 8 -1 4 30 57 70 117 97 148 96 146 107 159 6 7 16 22 23
34 6 12 18 32 25 44 6 12 20 31 29 42 10 11 20 28 24 38 3 10 10 18 16 18 6 0
8 3 5 7 -4 3 3 20 16 37 13 17 43 64 67 104 25 40 64 103 87 140 23 37 49 82
59 100 9 17 21 32 27 32 6 0 7 3 4 6 -4 4 2 19 12 33 10 14 31 48 46 76 16 27
34 56 42 63 7 8 11 18 8 23 -4 5 -2 9 2 9 5 0 19 20 33 45 14 25 28 45 33 45
4 0 6 4 3 8 -2 4 9 27 25 51 16 24 29 50 29 58 0 7 4 13 9 13 5 0 14 12 20 28
16 38 54 104 69 121 15 16 36 62 34 74 -1 4 2 7 6 7 5 0 19 20 31 45 12 24 26
47 32 50 5 4 7 10 4 15 -3 4 2 13 10 20 8 7 15 19 15 26 0 8 5 14 11 14 5 0 8
4 5 8 -3 5 3 18 13 28 9 11 15 26 13 33 -3 8 0 11 7 7 6 -4 11 -1 11 9 0 8 11
33 25 55 14 22 25 42 25 44 0 3 13 28 30 56 16 27 26 50 22 50 -4 0 -2 4 5 8
6 4 14 20 17 36 3 15 9 33 14 39 9 13 15 67 7 67 -3 0 -5 -4 -5 -10z"/>
<path d="M2366 7941 c-4 -5 -7 -21 -8 -35 -1 -14 -5 -26 -8 -26 -3 0 -5 -17
-4 -38 0 -20 -2 -41 -5 -47 -9 -16 -8 -319 0 -330 5 -6 8 -20 8 -30 0 -26 9
-84 18 -110 3 -11 7 -29 9 -40 6 -38 15 -79 20 -87 3 -4 7 -18 9 -30 13 -65
102 -308 118 -319 5 -3 8 -10 8 -15 0 -5 14 -39 31 -75 34 -71 32 -69 148 -94
3 0 23 -5 45 -10 65 -14 69 -14 103 -17 17 -1 32 -6 32 -10 0 -4 11 -3 25 2
14 5 25 6 25 2 0 -5 46 -9 103 -11 119 -3 105 -3 187 3 68 6 95 9 170 20 73
11 79 12 86 18 3 4 11 5 18 2 6 -2 37 4 69 15 31 11 57 18 57 16 0 -2 25 5 56
15 31 11 60 17 65 14 5 -3 9 2 9 11 0 9 4 14 9 10 5 -3 35 6 66 20 32 14 61
22 66 19 5 -3 9 -2 9 3 0 4 15 14 33 22 74 31 142 66 149 76 4 5 8 6 8 2 0 -5
13 1 28 12 16 11 34 21 41 23 7 2 23 11 35 22 l22 19 -90 46 c-50 25 -94 50
-98 56 -4 5 -8 6 -8 1 0 -5 -6 -4 -12 2 -14 11 -51 31 -213 117 -60 32 -111
62 -113 67 -2 4 -9 8 -16 8 -14 0 -71 28 -105 52 -13 10 -28 15 -33 12 -4 -3
-8 -2 -8 3 0 4 -10 13 -23 18 -31 15 -111 59 -117 65 -3 3 -12 6 -20 8 -8 2
-16 8 -18 13 -2 5 -12 9 -23 9 -10 0 -19 3 -19 8 0 8 -55 34 -66 32 -4 -1 -10
3 -13 8 -3 5 -46 30 -96 56 -49 26 -95 52 -102 58 -7 6 -13 7 -13 4 0 -4 -12
1 -27 11 -16 11 -57 34 -93 53 -36 18 -67 36 -70 39 -3 4 -30 17 -60 31 -30
14 -57 27 -60 30 -5 5 -69 40 -125 68 -16 8 -38 22 -49 31 -10 9 -19 14 -20
13 -1 -5 -60 21 -66 29 -6 7 -66 39 -74 39 -3 0 -7 -4 -10 -9z"/>
<path d="M10160 7617 c-13 -29 -34 -69 -47 -89 -13 -21 -20 -38 -16 -38 5 0 3
-4 -3 -8 -11 -7 -48 -71 -49 -84 0 -4 -8 -17 -17 -28 -10 -11 -18 -27 -18 -35
0 -8 -4 -15 -10 -15 -5 0 -10 -5 -10 -11 0 -6 -9 -24 -21 -40 -11 -16 -17 -29
-12 -29 4 0 1 -6 -7 -13 -9 -7 -24 -31 -34 -54 -11 -24 -23 -43 -28 -43 -5 0
-6 -4 -3 -10 3 -5 2 -10 -3 -10 -6 0 -12 -10 -16 -23 -3 -12 -15 -32 -26 -45
-11 -12 -18 -22 -15 -22 4 0 -2 -12 -13 -27 -11 -16 -23 -38 -26 -51 -4 -12
-12 -20 -17 -17 -5 4 -9 -3 -9 -13 0 -11 -7 -25 -15 -32 -8 -7 -12 -16 -9 -21
3 -5 -2 -9 -11 -9 -9 0 -13 -5 -9 -11 3 -6 0 -15 -7 -20 -8 -4 -14 -12 -14
-16 -1 -4 -13 -27 -28 -50 -15 -24 -27 -47 -27 -53 0 -5 -4 -10 -9 -10 -5 0
-17 -20 -27 -44 -10 -24 -21 -43 -24 -41 -3 2 -18 -21 -34 -51 -16 -30 -33
-54 -38 -54 -5 0 -7 -4 -3 -9 3 -6 -3 -14 -12 -20 -10 -6 -14 -11 -9 -11 4 0
-3 -15 -17 -34 -15 -18 -23 -36 -20 -40 3 -3 -2 -8 -11 -12 -9 -3 -16 -12 -16
-20 0 -8 -5 -14 -11 -14 -5 0 -8 -4 -5 -9 3 -5 -1 -14 -9 -21 -8 -7 -15 -18
-15 -26 0 -7 -8 -18 -17 -23 -10 -6 -15 -11 -11 -11 4 0 -13 -30 -38 -67 -24
-38 -49 -75 -54 -83 -5 -8 -29 -45 -53 -81 -24 -36 -46 -73 -50 -82 -3 -9 -11
-17 -17 -17 -5 0 -10 -6 -10 -14 0 -7 -10 -25 -21 -40 l-22 -27 44 6 c24 3 52
8 61 11 16 5 37 10 84 19 12 3 40 12 64 20 24 8 45 13 48 10 3 -3 10 -1 16 4
6 4 34 15 63 24 28 9 64 22 80 29 15 6 30 12 33 13 3 1 19 7 35 14 17 6 34 11
39 10 5 0 12 3 15 8 3 5 52 31 109 58 56 27 102 51 102 55 0 4 6 7 13 7 21 0
127 69 119 78 -4 5 -2 5 4 2 6 -4 25 4 42 16 16 12 40 29 52 37 13 8 35 25 50
38 15 12 33 22 39 22 6 0 11 4 11 8 0 5 19 23 43 40 98 71 106 89 121 275 3
31 8 61 11 66 3 5 1 12 -5 16 -6 4 -7 11 -3 17 9 15 10 179 1 184 -4 3 -3 16
2 29 5 14 6 25 2 25 -5 0 -8 10 -8 23 -1 40 -13 142 -19 157 -3 9 -7 31 -10
50 -8 61 -16 104 -24 125 -5 11 -22 63 -39 115 -32 98 -78 206 -91 214 -4 3
-18 -19 -31 -47z"/>
<path d="M4535 6757 c-11 -7 -35 -22 -53 -35 -17 -13 -32 -20 -32 -15 0 4 -4
3 -8 -2 -20 -28 -288 -171 -422 -225 -94 -38 -160 -64 -170 -66 -3 -1 -20 -5
-37 -9 -18 -4 -33 -11 -33 -16 0 -5 -3 -8 -7 -7 -5 1 -24 -2 -43 -6 -19 -4
-44 -9 -55 -11 -11 -2 -20 -4 -20 -5 0 -2 -13 -5 -51 -14 -12 -2 -37 -9 -55
-14 -19 -5 -44 -8 -56 -7 -13 1 -23 -1 -23 -5 0 -4 -6 -7 -12 -7 -41 -1 -162
-14 -169 -18 -21 -14 -321 -7 -449 10 -14 1 -49 6 -79 10 -30 4 -65 11 -78 16
-13 5 -23 6 -23 3 0 -4 -6 -2 -12 3 -7 5 -23 8 -35 7 -13 0 -23 2 -23 5 0 4
-8 8 -17 9 -22 2 -58 10 -58 12 0 1 -13 3 -28 4 -23 1 -26 0 -13 -10 9 -6 13
-14 9 -17 -3 -4 2 -9 11 -13 9 -3 16 -13 16 -22 0 -8 2 -13 5 -10 3 3 19 -6
34 -21 45 -42 82 -71 91 -71 4 0 10 -7 14 -15 3 -8 12 -15 21 -15 8 0 15 -4
15 -10 0 -5 5 -10 12 -10 6 0 18 -7 27 -15 35 -33 80 -65 91 -65 6 0 8 -4 5
-10 -3 -5 3 -10 14 -10 12 0 21 -4 21 -9 0 -5 17 -20 38 -32 20 -13 38 -27 40
-31 2 -4 21 -18 43 -30 21 -12 39 -25 39 -30 0 -4 7 -8 15 -8 8 0 15 -4 15
-10 0 -5 5 -10 10 -10 6 0 21 -10 34 -22 12 -13 39 -32 59 -43 20 -11 37 -23
37 -27 0 -5 7 -8 15 -8 9 0 18 -7 21 -15 4 -8 12 -15 20 -15 7 0 17 -6 21 -14
4 -8 15 -16 23 -18 8 -2 26 -13 40 -26 14 -12 33 -25 43 -28 9 -3 17 -10 17
-15 0 -5 6 -9 14 -9 8 0 16 -3 18 -7 5 -12 66 -53 78 -53 5 0 10 -4 10 -10 0
-5 6 -10 14 -10 8 0 16 -4 18 -8 4 -12 182 -127 191 -124 4 1 7 -5 7 -14 0 -8
4 -13 9 -9 5 3 12 1 16 -5 4 -6 12 -7 18 -4 7 4 9 4 5 -1 -8 -9 31 -42 45 -37
4 1 7 -3 7 -8 0 -6 7 -10 16 -10 9 0 12 -5 8 -12 -5 -7 -2 -9 9 -5 9 3 17 2
19 -2 4 -12 121 -86 131 -83 4 1 7 -3 7 -8 0 -6 7 -10 15 -10 8 0 15 -4 15
-10 0 -5 16 -16 35 -24 19 -8 35 -19 35 -23 0 -5 20 -17 44 -28 24 -11 43 -23
40 -26 -3 -6 47 -33 55 -29 2 1 7 -2 10 -7 10 -15 71 -55 71 -47 0 4 9 -1 20
-11 23 -21 57 -42 83 -51 9 -3 17 -10 17 -15 0 -5 9 -9 20 -9 12 0 20 -7 20
-17 0 -9 3 -14 6 -10 3 3 24 -6 46 -20 33 -20 45 -23 62 -15 33 17 140 66 146
67 3 0 24 11 47 23 23 12 49 22 58 22 9 0 14 4 11 9 -4 5 7 12 24 16 16 4 30
10 30 14 0 5 17 16 38 25 61 27 173 94 183 109 3 5 8 8 10 6 6 -4 93 53 97 62
2 5 9 9 16 9 7 0 22 8 34 18 12 9 56 42 99 72 43 30 80 58 81 62 2 5 10 8 18
8 8 0 14 3 14 8 0 4 17 18 37 32 20 14 47 35 59 48 13 12 26 22 29 22 4 0 15
9 66 55 9 8 19 15 23 15 4 0 20 12 35 28 39 37 91 83 91 79 0 -2 21 16 46 40
25 23 50 43 55 43 5 0 9 7 9 15 0 8 5 15 11 15 6 0 28 17 48 38 21 20 59 57
86 81 47 44 47 45 24 54 -13 6 -27 9 -31 9 -5 -1 -8 3 -8 10 0 6 -3 8 -6 5 -4
-3 -16 -1 -28 5 -11 7 -23 13 -26 14 -6 1 -63 26 -140 61 -30 14 -71 32 -90
40 -19 9 -76 35 -127 59 -50 24 -96 44 -102 44 -6 0 -11 5 -11 10 0 6 -6 10
-13 10 -7 0 -51 20 -99 44 -47 24 -89 42 -92 39 -3 -4 -6 -1 -6 5 0 10 -25 23
-44 21 -5 0 -12 3 -15 8 -3 4 -42 26 -86 48 -44 22 -82 42 -85 45 -3 3 -52 29
-110 58 -58 30 -141 73 -185 97 -44 24 -96 52 -115 61 -19 10 -38 23 -42 28
-4 6 -8 7 -8 2 0 -5 -8 -3 -17 5 -29 23 -80 49 -95 48 -7 -1 -22 -6 -33 -12z"/>
<path d="M10636 6245 c-8 -8 -20 -15 -26 -15 -6 0 -21 -10 -33 -23 -12 -12
-47 -43 -77 -67 -30 -25 -56 -48 -58 -52 -2 -5 -10 -8 -18 -8 -8 0 -14 -4 -14
-9 0 -5 -15 -18 -32 -30 -18 -11 -42 -26 -53 -33 -11 -7 -22 -16 -25 -19 -3
-3 -25 -19 -50 -35 -66 -42 -82 -52 -110 -66 -14 -7 -30 -18 -37 -24 -7 -7
-65 -38 -130 -70 -65 -33 -121 -63 -125 -69 -4 -5 -8 -7 -8 -2 0 4 -10 1 -23
-8 -13 -8 -27 -12 -30 -8 -4 3 -7 1 -7 -5 0 -7 -3 -11 -7 -10 -5 0 -17 -2 -28
-7 -104 -40 -151 -57 -220 -80 -44 -15 -88 -29 -97 -31 -10 -2 -27 -6 -38 -8
-11 -3 -24 -7 -28 -10 -5 -3 -24 -8 -43 -11 -19 -3 -52 -11 -74 -17 -22 -6
-51 -12 -65 -14 -14 -1 -36 -5 -50 -9 -34 -8 -74 -14 -140 -21 -30 -3 -66 -7
-80 -9 -14 -2 -34 -3 -45 -4 -13 -1 -28 -15 -39 -36 -11 -19 -23 -35 -28 -35
-4 0 -8 -6 -8 -13 0 -8 -9 -22 -20 -32 -11 -10 -20 -22 -20 -27 0 -5 -18 -33
-40 -63 -22 -30 -40 -59 -40 -64 0 -6 -6 -14 -13 -18 -8 -4 -22 -23 -32 -40
-11 -18 -23 -33 -27 -33 -4 0 -8 -4 -8 -10 0 -9 -43 -71 -86 -123 -8 -9 -14
-21 -14 -25 0 -5 -14 -23 -31 -40 -17 -18 -27 -32 -23 -32 5 0 5 -4 -1 -8 -16
-11 -87 -102 -80 -102 3 0 -6 -11 -21 -25 -15 -14 -24 -25 -20 -25 3 0 -2 -9
-11 -19 -27 -29 -39 -45 -41 -53 -1 -5 -10 -16 -19 -27 -22 -22 -58 -66 -98
-117 -16 -21 -39 -48 -50 -60 -11 -12 -27 -32 -35 -44 -8 -12 -26 -35 -40 -50
-25 -27 -99 -111 -140 -160 -90 -107 -188 -211 -367 -393 -80 -81 -144 -149
-142 -151 2 -2 20 -7 39 -10 61 -10 93 -17 100 -21 4 -2 26 -7 51 -10 51 -7
84 -13 84 -15 0 -2 37 -9 85 -14 25 -3 56 -8 70 -10 39 -8 111 -17 160 -21 25
-2 72 -7 105 -10 140 -15 575 -9 695 9 14 2 50 7 80 11 30 4 85 13 123 20 37
7 67 10 67 8 0 -3 6 -1 13 5 7 6 28 14 46 17 72 13 350 127 359 148 2 4 8 7
14 7 5 0 23 9 39 21 16 11 29 17 29 12 0 -4 5 0 11 10 5 9 15 17 22 17 10 0
30 14 85 60 6 6 12 9 12 6 0 -3 13 7 29 22 16 15 38 34 49 42 75 57 230 227
290 320 20 30 41 58 47 62 6 5 6 8 0 8 -6 0 -5 4 1 8 7 4 40 61 74 127 35 66
67 126 73 133 5 6 6 12 2 12 -5 0 -1 8 8 18 8 9 19 29 22 45 4 15 10 27 14 27
4 0 13 20 20 45 7 25 17 45 22 45 5 0 8 3 7 8 -1 4 4 18 9 32 23 53 62 156 63
165 0 3 10 26 21 52 12 27 23 59 26 73 2 13 9 30 15 37 6 7 7 13 3 13 -4 0 -2
7 5 15 7 9 10 18 7 22 -3 3 0 18 9 34 8 16 14 31 14 34 1 5 1 8 23 85 8 30 19
71 23 90 11 47 11 50 14 53 2 3 9 38 13 67 2 14 7 31 11 38 4 7 5 12 3 12 -3
0 -1 17 4 38 13 52 17 70 24 126 3 27 8 53 10 56 2 4 7 35 11 71 3 35 9 68 12
73 2 5 6 36 7 70 2 33 6 91 9 129 4 37 5 67 2 67 -2 0 -11 -7 -20 -15z"/>
<path d="M2417 5888 c5 -126 14 -219 28 -288 3 -14 8 -38 11 -55 3 -16 10 -48
15 -70 5 -22 11 -44 12 -50 1 -5 6 -16 10 -22 5 -7 6 -17 2 -22 -3 -5 -1 -12
4 -15 5 -3 12 -22 15 -41 4 -19 11 -35 16 -35 4 0 7 -8 5 -17 -1 -10 1 -22 5
-28 3 -5 13 -26 20 -45 35 -95 157 -321 180 -335 6 -3 8 -10 5 -14 -2 -5 7
-19 20 -31 14 -13 25 -30 25 -38 0 -9 3 -13 6 -9 3 3 25 -1 47 -9 23 -8 50
-13 60 -10 9 2 15 1 12 -4 -5 -7 43 -20 95 -26 14 -1 25 -3 25 -4 0 -2 26 -8
70 -14 22 -4 49 -8 60 -11 28 -6 129 -16 201 -19 34 -2 67 -7 73 -10 6 -4 11
-3 11 3 0 7 8 7 26 1 16 -7 23 -7 19 0 -4 7 2 7 19 0 17 -6 27 -6 32 1 4 7 10
6 19 -1 10 -8 15 -8 20 0 5 8 11 8 21 -1 8 -6 14 -8 14 -3 0 5 28 9 63 10 63
0 184 11 221 19 23 5 79 15 111 19 11 2 31 6 45 9 14 3 49 11 78 18 l54 11
-65 42 c-80 51 -87 56 -169 107 -38 23 -68 45 -68 50 0 5 -7 9 -15 9 -9 0 -21
5 -28 11 -23 20 -197 129 -206 129 -5 0 -11 3 -13 8 -5 10 -97 72 -108 72 -6
0 -10 3 -10 8 0 4 -20 18 -45 32 -25 14 -45 28 -45 32 0 5 -4 8 -9 8 -6 0 -31
15 -56 33 -26 17 -54 37 -63 42 -32 19 -137 90 -149 100 -7 6 -19 16 -27 23
-8 6 -22 12 -31 12 -8 0 -15 4 -15 8 0 5 -39 35 -87 67 -49 33 -93 64 -99 70
-31 27 -54 44 -54 39 0 -6 -74 48 -78 59 -2 4 -10 7 -18 7 -8 0 -14 3 -14 8 0
4 -20 20 -45 35 -25 16 -45 33 -45 37 0 5 -8 11 -19 15 -10 3 -29 15 -42 26
-13 11 -34 29 -46 40 -13 10 -23 16 -23 14 0 -3 -12 5 -27 19 -15 14 -30 23
-35 20 -4 -3 -8 0 -8 5 0 6 -4 11 -8 11 -4 0 -6 -28 -5 -62z"/>
<path d="M6431 5773 c-46 -46 -87 -83 -93 -83 -5 0 -6 -4 -3 -10 3 -5 3 -10
-2 -10 -8 0 -45 -33 -151 -131 -28 -27 -54 -49 -57 -49 -3 0 -21 -16 -41 -35
-19 -19 -36 -35 -39 -35 -2 0 -25 -19 -50 -42 -26 -24 -64 -55 -85 -69 -22
-15 -36 -29 -33 -33 4 -3 2 -6 -4 -6 -5 0 -21 -9 -34 -20 -39 -32 -41 -34
-100 -78 -31 -23 -61 -42 -68 -42 -7 0 -10 -4 -7 -8 5 -8 -57 -53 -222 -160
-53 -34 -105 -69 -114 -77 -10 -8 -18 -12 -18 -8 0 3 -8 -1 -17 -9 -19 -16
-144 -86 -228 -128 -27 -14 -51 -28 -53 -32 -2 -5 -9 -8 -17 -8 -7 0 -18 -6
-24 -14 -10 -11 1 -21 56 -51 37 -21 87 -51 111 -67 24 -15 40 -23 37 -16 -4
7 1 4 9 -6 9 -11 16 -16 16 -12 0 4 12 -1 28 -12 15 -10 56 -34 92 -53 36 -18
68 -37 71 -42 3 -5 12 -9 20 -10 8 -2 21 -7 29 -12 8 -5 56 -30 105 -55 50
-26 101 -53 115 -60 14 -8 27 -15 30 -15 16 -3 126 -60 128 -67 2 -4 8 -6 13
-2 5 3 16 -2 25 -10 8 -9 22 -16 30 -16 8 0 13 -3 11 -7 -3 -5 7 -9 21 -10 15
0 28 -6 30 -12 2 -6 8 -11 13 -11 7 0 81 -32 174 -75 16 -7 33 -11 37 -9 4 3
8 2 8 -3 0 -4 12 -13 28 -20 111 -47 188 -76 199 -76 7 0 13 -3 13 -7 0 -5 84
-40 110 -46 3 0 12 -4 20 -7 25 -11 75 -29 75 -27 0 1 24 -8 53 -19 28 -11 52
-17 52 -13 0 4 4 2 8 -5 4 -6 19 -14 34 -17 14 -2 36 -9 47 -16 12 -6 21 -8
21 -4 0 3 6 2 13 -4 6 -5 38 -16 70 -23 31 -8 57 -17 57 -20 0 -15 360 338
502 493 110 120 117 128 248 281 19 23 43 49 53 59 9 10 17 21 17 24 0 3 6 11
13 18 6 7 23 27 37 45 14 18 34 42 45 55 28 33 46 55 80 101 29 38 43 55 75
95 8 10 22 28 30 40 8 12 20 28 25 34 6 6 22 27 35 46 13 19 35 46 47 60 13
14 26 33 29 43 3 9 9 17 13 17 4 0 17 18 30 40 12 22 27 40 33 40 6 0 8 3 5 7
-4 3 1 16 12 27 10 12 39 51 63 88 25 37 48 65 51 62 3 -3 4 2 3 11 -2 14 -17
17 -87 20 -91 4 -224 13 -285 20 -86 9 -203 25 -239 31 -11 3 -36 7 -55 9 -19
3 -46 8 -60 11 -14 3 -35 8 -47 10 -13 2 -33 6 -45 9 -13 3 -57 12 -98 20 -41
9 -82 17 -90 19 -8 2 -22 6 -30 9 -8 3 -28 8 -45 11 -16 4 -41 9 -55 12 -14 3
-32 7 -40 9 -8 2 -16 4 -17 5 -2 2 -7 4 -13 5 -5 1 -11 3 -12 5 -4 2 -22 6
-68 15 -19 3 -39 10 -45 15 -5 4 -13 8 -18 8 -26 0 -88 15 -92 22 -3 5 -12 7
-20 3 -8 -3 -15 -1 -15 4 0 5 -6 10 -12 10 -17 1 -208 61 -228 72 -18 10 -82
26 -92 23 -5 -1 -8 3 -8 8 0 6 -3 9 -7 8 -5 0 -17 2 -28 6 -11 4 -29 11 -40
15 -16 5 -37 -10 -104 -76z"/>
<path d="M4535 4510 c-3 -5 -16 -10 -28 -10 -12 0 -35 -7 -50 -15 -16 -8 -40
-16 -55 -19 -15 -2 -28 -5 -29 -6 -2 -2 -6 -3 -10 -5 -5 -1 -20 -5 -34 -9 -14
-4 -32 -9 -40 -10 -8 -2 -21 -6 -29 -9 -8 -3 -31 -9 -50 -12 -39 -6 -65 -13
-65 -15 0 -1 -11 -3 -25 -5 -14 -1 -38 -5 -55 -9 -16 -3 -41 -8 -55 -10 -39
-8 -121 -18 -162 -19 -21 -1 -38 -4 -38 -7 0 -9 -105 -5 -119 4 -10 6 -12 6
-7 -2 8 -13 -13 -14 -194 -12 -160 3 -194 5 -207 13 -8 5 -13 3 -13 -3 0 -6
-5 -8 -12 -3 -7 4 -24 8 -38 9 -61 6 -177 21 -215 29 -42 9 -175 37 -187 41
-5 1 -10 3 -13 4 -7 4 -16 6 -60 15 -22 4 -44 10 -50 14 -5 3 -14 6 -20 7 -5
1 -28 5 -50 9 -29 5 -36 4 -25 -4 8 -6 11 -11 5 -11 -6 0 -6 -3 1 -8 5 -4 22
-29 36 -57 14 -27 40 -72 57 -100 17 -27 36 -61 43 -75 7 -14 15 -27 19 -30 3
-3 14 -20 24 -37 11 -18 23 -33 27 -33 4 0 8 -6 8 -14 0 -8 6 -21 13 -28 7 -7
28 -35 47 -63 38 -56 47 -68 73 -96 9 -10 17 -22 17 -25 0 -3 19 -29 43 -58
23 -28 47 -57 52 -64 16 -20 56 -67 115 -133 96 -108 380 -387 380 -373 0 2
16 -11 35 -31 20 -19 39 -35 43 -35 4 0 24 -16 45 -36 20 -20 37 -34 37 -31 0
3 10 -3 23 -14 12 -10 38 -32 57 -49 19 -16 41 -30 49 -30 8 0 11 -3 8 -7 -4
-3 1 -11 12 -17 87 -51 128 -76 136 -83 23 -19 95 -54 95 -46 0 4 7 -1 15 -11
8 -11 15 -17 15 -13 0 4 11 0 25 -9 14 -9 25 -13 25 -10 0 4 10 1 23 -6 12 -7
25 -11 30 -10 4 1 7 -2 7 -8 0 -5 9 -10 21 -10 11 0 29 -5 40 -10 23 -13 162
-51 199 -55 14 -2 25 -4 25 -5 0 -2 37 -10 63 -12 12 -1 22 -6 22 -11 0 -5 6
-4 13 2 8 6 17 8 20 5 15 -15 252 -20 377 -9 41 4 85 8 98 8 12 1 22 4 22 8 0
3 10 5 23 5 12 -1 27 0 32 3 6 3 19 7 30 9 28 5 50 10 53 12 6 6 85 22 96 20
5 -1 12 3 15 9 4 5 18 12 31 14 26 5 151 49 210 74 76 32 97 41 145 63 28 13
52 24 55 25 3 1 26 12 52 24 26 12 51 21 54 21 4 -1 10 2 13 7 3 5 24 18 46
30 87 45 110 58 113 66 2 4 7 7 12 7 12 0 134 73 138 82 2 5 10 8 18 8 8 0 14
5 14 11 0 5 4 8 9 4 5 -3 13 -1 16 5 4 6 25 22 48 37 22 14 45 29 51 34 6 5
49 37 96 70 46 33 88 65 92 72 4 7 8 8 8 4 0 -4 6 -3 13 3 6 6 23 19 36 30 23
19 19 24 -15 19 -4 0 -10 3 -13 8 -5 7 -83 39 -116 47 -5 2 -23 8 -38 14 -16
7 -35 12 -43 12 -8 0 -14 5 -14 12 0 6 -3 8 -7 5 -3 -4 -12 -2 -20 4 -7 6 -13
8 -13 4 0 -4 -10 -1 -23 8 -12 8 -37 18 -55 21 -17 4 -32 11 -32 16 0 6 -49
21 -66 19 -3 0 -15 6 -28 14 -13 9 -31 17 -42 19 -10 2 -22 7 -25 11 -3 5 -12
9 -20 11 -8 1 -25 8 -39 16 -14 8 -29 15 -35 16 -14 2 -109 47 -115 53 -3 3
-14 8 -25 9 -11 2 -21 8 -23 13 -2 5 -9 9 -15 9 -7 0 -45 16 -85 36 -79 38
-112 51 -126 52 -5 0 -12 4 -15 10 -5 7 -165 91 -298 156 -13 6 -23 14 -23 18
0 3 -13 9 -29 13 -16 3 -35 13 -42 21 -6 8 -16 14 -22 14 -5 0 -57 27 -114 60
-58 33 -109 60 -114 60 -5 0 -9 5 -9 10 0 6 -4 10 -9 10 -5 0 -48 23 -96 50
-48 28 -91 50 -96 50 -5 0 -9 3 -9 8 0 4 -26 22 -57 40 -32 18 -71 41 -88 52
-34 21 -61 25 -70 10z"/>
<path d="M7039 3362 c-8 -9 -32 -30 -54 -47 -21 -16 -51 -41 -67 -55 -48 -43
-57 -50 -62 -50 -5 0 -175 -125 -203 -150 -7 -5 -17 -10 -23 -10 -5 0 -10 -3
-10 -8 0 -4 -18 -18 -40 -32 -22 -14 -40 -29 -40 -34 0 -5 -3 -7 -6 -4 -5 5
-92 -46 -121 -72 -7 -6 -13 -7 -13 -3 0 4 -7 -1 -15 -11 -8 -11 -15 -16 -15
-10 0 5 -3 5 -8 -1 -9 -12 -56 -41 -99 -61 -18 -8 -33 -19 -33 -24 0 -6 -6
-10 -14 -10 -17 0 -100 -42 -104 -52 -2 -5 -10 -8 -19 -8 -8 0 -27 -9 -43 -20
-15 -11 -30 -17 -34 -13 -3 3 -6 1 -6 -5 0 -6 -10 -14 -22 -17 -13 -4 -48 -18
-78 -32 -102 -46 -130 -58 -160 -68 -13 -4 -47 -17 -68 -26 -43 -17 -207 -70
-231 -75 -13 -3 -32 -9 -42 -15 -10 -5 -29 -10 -43 -11 -15 -1 -26 -5 -26 -9
0 -3 -11 -5 -25 -4 -14 2 -25 -1 -25 -7 0 -6 -6 -8 -14 -5 -8 3 -17 3 -20 -1
-4 -3 -15 -7 -26 -9 -11 -2 -28 -5 -37 -7 -10 -2 -37 -7 -61 -11 -24 -4 -47
-15 -52 -25 -8 -14 -2 -19 33 -30 23 -6 52 -16 65 -21 13 -5 34 -9 47 -9 14 0
25 -4 25 -8 0 -4 12 -9 26 -10 14 -1 31 -5 37 -9 7 -4 18 -8 27 -9 22 -3 70
-14 110 -24 45 -12 89 -21 120 -25 14 -2 25 -4 25 -5 0 -1 11 -3 25 -5 32 -6
65 -13 65 -15 0 -1 18 -3 40 -5 40 -3 99 -10 165 -20 62 -9 154 -17 221 -19
36 -2 71 -6 77 -10 7 -4 12 -2 12 4 0 7 6 8 18 2 27 -13 446 -4 587 13 17 2
57 7 90 11 61 6 104 12 140 18 11 2 39 7 62 10 23 3 61 10 85 15 24 6 59 13
78 16 19 3 51 10 70 15 19 5 46 11 60 14 14 2 25 5 25 6 0 1 7 3 15 5 8 1 35
8 60 15 25 7 50 13 55 14 6 2 30 9 55 16 25 7 50 14 55 16 6 1 57 19 115 39
58 20 111 37 118 37 6 1 12 4 12 8 0 4 6 7 13 7 6 0 30 8 52 18 22 10 48 20
58 21 10 2 29 11 42 20 13 8 30 17 37 18 7 1 39 15 70 29 31 15 62 27 67 27 6
0 11 4 11 10 0 5 3 9 8 8 8 -3 166 77 245 124 29 17 57 31 64 31 7 0 10 3 8 7
-2 4 7 12 20 18 13 6 41 22 62 35 21 13 43 25 48 26 6 1 14 9 18 17 4 8 15 14
22 14 8 0 15 5 15 10 0 6 4 10 10 10 11 0 113 71 118 82 2 5 10 8 18 8 8 0 14
4 14 8 0 4 14 16 31 26 18 10 39 26 48 35 9 9 29 25 45 36 15 11 38 29 50 40
12 11 44 38 71 60 148 122 167 151 94 142 -23 -3 -44 -9 -48 -13 -3 -5 -19
-10 -36 -11 -45 -3 -98 -12 -115 -20 -8 -4 -22 -7 -30 -9 -8 -1 -51 -7 -95
-14 -44 -7 -102 -14 -130 -16 -27 -1 -50 -4 -50 -4 0 -4 -90 -10 -181 -13 -55
-2 -106 -7 -112 -11 -7 -4 -12 -3 -12 2 0 12 -73 10 -81 -2 -4 -5 -13 -5 -20
-1 -19 12 -79 13 -79 1 0 -6 -5 -5 -12 2 -7 7 -17 8 -29 2 -10 -6 -20 -6 -23
-1 -3 5 -28 8 -56 8 -28 -1 -50 0 -50 3 0 3 -27 5 -60 5 -33 0 -60 2 -60 5 0
3 -21 5 -48 6 -53 1 -134 10 -252 29 -65 10 -64 10 -75 16 -5 3 -20 4 -32 3
-13 0 -23 1 -23 5 0 3 -10 7 -22 8 -28 2 -67 9 -133 23 -49 11 -79 17 -120 25
-11 2 -31 8 -45 13 -14 5 -29 10 -35 11 -5 1 -28 7 -50 13 -67 18 -90 18 -106
0z"/>
<path d="M7536 1953 c-3 -4 -14 -8 -24 -9 -16 -3 -78 -20 -112 -32 -8 -2 -26
-6 -40 -7 -27 -3 -90 -13 -130 -21 -14 -3 -31 -6 -38 -6 -9 -1 -12 -9 -8 -27
9 -37 14 -56 16 -56 1 0 4 -20 6 -44 3 -25 10 -53 15 -62 5 -10 9 -31 9 -46 0
-16 5 -34 12 -41 7 -7 9 -12 6 -12 -3 0 -2 -17 3 -37 5 -21 12 -49 14 -63 8
-41 13 -65 16 -65 1 0 3 -9 4 -20 3 -21 8 -46 24 -107 5 -21 7 -38 4 -38 -3 0
-1 -6 5 -12 5 -7 13 -29 18 -48 11 -49 11 -49 14 -55 1 -3 3 -8 5 -12 8 -31
85 -221 111 -278 16 -33 29 -62 30 -65 3 -15 78 -181 110 -245 31 -62 89 -105
147 -110 23 -2 42 -5 42 -5 0 -1 10 -3 23 -4 12 -2 22 0 22 4 0 3 14 7 31 8
17 1 39 7 49 12 9 5 20 6 24 3 3 -3 6 -1 6 5 0 7 6 12 14 12 16 0 66 45 66 60
0 5 4 10 9 10 14 0 33 67 33 112 -1 49 -20 109 -41 125 -9 7 -11 13 -6 13 7 0
7 3 0 8 -15 11 -55 70 -55 82 0 5 -4 10 -9 10 -5 0 -11 8 -14 17 -3 10 -20 41
-36 68 -17 28 -33 57 -37 65 -3 8 -14 32 -25 53 -10 22 -19 45 -19 53 0 8 -4
14 -9 14 -5 0 -12 10 -16 23 -10 30 -12 36 -15 42 -1 3 -3 8 -5 13 -1 4 -7 21
-14 37 -6 17 -15 41 -20 55 -5 14 -13 34 -17 45 -4 11 -8 23 -9 28 -2 4 -4 9
-5 12 -1 3 -3 8 -4 13 -11 39 -28 104 -36 132 -6 19 -12 46 -14 60 -3 14 -5
25 -6 25 -1 0 -3 9 -5 20 -6 31 -18 89 -21 100 -2 6 -5 21 -8 35 -29 135 -38
160 -60 160 -13 0 -26 -3 -30 -7z"/>
</g>
</svg>
